<svg id="Capa_1" data-name="Capa 1" xmlns="http://www.w3.org/2000/svg" viewBox="0 0 303.2 385.55"><defs><style>.cls-1{fill:#e62a28;}.cls-1,.cls-10,.cls-2,.cls-3,.cls-4,.cls-7,.cls-8,.cls-9{fill-rule:evenodd;}.cls-2{fill:#e65427;}.cls-3{fill:#ed8924;}.cls-4{fill:#cfd952;}.cls-5{fill:#3c3f41;}.cls-6{fill:#929497;}.cls-7{fill:#b4ce4c;}.cls-8{fill:#f8ac2d;}.cls-9{fill:#e74426;}.cls-10{fill:#e97924;}</style></defs><title>logo</title><polygon class="cls-1" points="93.31 38.54 99.04 42.18 104.31 37.86 104.61 32.54 93.48 32.54 93.31 38.54"/><polygon class="cls-1" points="164.74 32.54 162.43 38.45 170.3 42.18 176.09 38.07 175.87 32.54 164.74 32.54"/><path class="cls-1" d="M239.89,35.4l.38,4.87,4.77,4,3.24-1.4-.44-3.44A21.25,21.25,0,0,0,239.89,35.4Z" transform="translate(-3.48 -2.14)"/><polygon class="cls-2" points="99.04 42.18 111.9 79.98 134.67 103.89 161.42 82.96 170.3 42.18 131.7 36.88 99.04 42.18"/><polygon class="cls-2" points="170.3 42.18 183.16 77.99 205.93 103.89 230.36 80.64 241.56 42.18 203.29 37.22 170.3 42.18"/><path class="cls-2" d="M252.21,44.32l-3.93-1.4L245,44.32l1.82,14,9.31,5.32L255.7,56A21.15,21.15,0,0,0,252.21,44.32Z" transform="translate(-3.48 -2.14)"/><polygon class="cls-3" points="66.8 103.89 99.04 165.6 123.81 142.02 134.67 103.89 98.38 91.65 66.8 103.89"/><polygon class="cls-3" points="134.67 103.89 142.89 141.36 170.3 165.6 202.01 145 205.93 103.89 169.31 96.94 134.67 103.89"/><polygon class="cls-3" points="236.6 93.96 205.93 103.89 216.14 140.37 241.56 165.6 253.52 154.55 257.41 138.15 255.3 103.89 236.6 93.96"/><path class="cls-4" d="M102.52,167.74,80.74,191.65,70.4,223.37a21.22,21.22,0,0,0,14.88,6.08h52.87L128.94,193Z" transform="translate(-3.48 -2.14)"/><polygon class="cls-4" points="170.3 165.6 148.52 192.48 134.67 227.31 205.93 227.31 196.06 187.85 170.3 165.6"/><path class="cls-4" d="M259.29,176.92,245,167.74l-24.76,23.58-10.87,38.13h34.36a21.38,21.38,0,0,0,21.3-21.3l-.39-6.4Z" transform="translate(-3.48 -2.14)"/><path class="cls-5" d="M28.63,327.19a9.89,9.89,0,0,1-4.41-3,7.57,7.57,0,0,1-1.62-3.47,39.1,39.1,0,0,1-.48-7.43V277.89H9.46v35.79a38.72,38.72,0,0,0,1.23,11.06,18,18,0,0,0,4.22,7,17.9,17.9,0,0,0,7.34,4.89c2.72.93,6.9,1.41,12.53,1.41h16v-10H35.89A22.89,22.89,0,0,1,28.63,327.19Z" transform="translate(-3.48 -2.14)"/><path class="cls-5" d="M80.71,276.71q-15.19,0-22.61,7.58t-7.43,23.08q0,16.49,7.28,24.23t22.76,7.74q15.3,0,22.63-7.7T110.69,308q0-16-7.35-23.61T80.71,276.71ZM93,323.8q-4,5.13-12.25,5.14t-12.3-5.18q-3.91-5.17-3.91-16.31c0-6.84,1.34-12,4-15.35S75.28,287,80.71,287s9.59,1.7,12.25,5.11,4,8.69,4,15.84S95.62,320.38,93,323.8Z" transform="translate(-3.48 -2.14)"/><path class="cls-5" d="M185.35,285.49q-6.91,7.59-6.92,23.55a39,39,0,0,0,2.31,14.16,22.79,22.79,0,0,0,14.54,13.68,41.14,41.14,0,0,0,11.13,1.2h21.4V327.6H207q-7.71,0-11-3.44c-2.19-2.3-3.31-6.07-3.33-11.31h35.12V302.41l-35,0c.24-4.74,1.54-8.26,3.87-10.55s5.78-3.45,10.38-3.45h20.79V277.89h-21Q192.25,277.89,185.35,285.49Z" transform="translate(-3.48 -2.14)"/><path class="cls-5" d="M168.43,307.31q3.12-4.38,3.13-11.32c0-6.21-1.69-10.8-5.09-13.71s-8.7-4.39-16-4.39H119.33v60.19H132V314.44H146.9l13.27,23.64h14.24l-15-25.11A14.38,14.38,0,0,0,168.43,307.31Zm-12.16-5.24q-2.45,1.73-8.76,1.72H132V288.62h15.52q6.44,0,8.83,1.7t2.39,5.84Q158.73,300.36,156.27,302.07Z" transform="translate(-3.48 -2.14)"/><polygon class="cls-5" points="269.34 321.94 253.98 275.74 235.38 275.74 235.38 335.94 248.29 335.94 247.02 288.56 262.95 335.94 276.38 335.94 291.82 289.04 290.8 335.94 303.2 335.94 303.2 275.74 284.69 275.74 269.34 321.94"/><rect class="cls-6" x="72.38" y="352.32" width="7.23" height="32.86"/><polygon class="cls-6" points="208.65 377.54 200.27 352.31 190.11 352.31 190.11 385.18 197.16 385.18 196.47 359.31 205.17 385.18 212.5 385.18 220.93 359.58 220.37 385.18 227.15 385.18 227.15 352.31 217.03 352.31 208.65 377.54"/><path class="cls-6" d="M114.58,356.09a10,10,0,0,0-3.6-1.24,37.14,37.14,0,0,0-6.06-.39h-15v32.86h6.91V375.83h8.38a31.16,31.16,0,0,0,6.41-.48,10.33,10.33,0,0,0,3.7-1.62,8.48,8.48,0,0,0,2.86-3.49,12.4,12.4,0,0,0,.94-5.07,11.78,11.78,0,0,0-1.15-5.33A9.4,9.4,0,0,0,114.58,356.09Zm-4.67,12.73a7.37,7.37,0,0,1-4.65,1.2H96.83v-9.7h8q3.63,0,5.11,1.1a5.3,5.3,0,0,1,0,7.4Z" transform="translate(-3.48 -2.14)"/><path class="cls-6" d="M180,374.13c0,3.09-.55,5.23-1.66,6.44s-3,1.81-5.72,1.81-4.63-.61-5.74-1.82-1.67-3.36-1.67-6.43V354.46h-6.86v19.85a27.41,27.41,0,0,0,.45,5.66,7.58,7.58,0,0,0,1.42,3.2,11.6,11.6,0,0,0,5,3.42,25.58,25.58,0,0,0,14.84,0,11.57,11.57,0,0,0,5-3.42,7.59,7.59,0,0,0,1.46-3.29,26.56,26.56,0,0,0,.46-5.57V354.46H180Z" transform="translate(-3.48 -2.14)"/><path class="cls-6" d="M142.78,368.19h-9.13a5.12,5.12,0,0,1-3.27-.89,3.31,3.31,0,0,1-1.09-2.69,4,4,0,0,1,1.28-3.26,6.43,6.43,0,0,1,4-1h17.06v-5.86H133.6c-4,0-6.93.81-8.78,2.42s-2.76,4.15-2.76,7.64c0,3.27.88,5.65,2.63,7.16S129.21,374,133,374h8.15a6.27,6.27,0,0,1,3.79.87,3.49,3.49,0,0,1,1.1,2.93,3.25,3.25,0,0,1-1.2,2.84,7.41,7.41,0,0,1-4.16.86H123.39v5.86h18.39c4,0,6.87-.79,8.72-2.38s2.77-4.07,2.77-7.45-.8-5.72-2.4-7.16S146.57,368.19,142.78,368.19Z" transform="translate(-3.48 -2.14)"/><path class="cls-7" d="M64,208.15a21.57,21.57,0,0,0,6.42,15.22L84.71,198.6l17.81-30.86H66.89Z" transform="translate(-3.48 -2.14)"/><polygon class="cls-2" points="50.52 104.54 82.35 49.39 18.86 49.39 50.52 104.54"/><polygon class="cls-8" points="27.37 156.58 75.17 156.58 51.1 114.89 27.37 156.58"/><polygon class="cls-7" points="99.04 165.6 116.86 196.45 134.67 227.31 152.49 196.45 170.3 165.6 134.67 165.6 99.04 165.6"/><path class="cls-9" d="M94.66,34.68a21.23,21.23,0,0,0-15,6.21l0,0,0,0,0,0a22,22,0,0,0-2.74,3.35h25.65L97,34.68Z" transform="translate(-3.48 -2.14)"/><polygon class="cls-10" points="99.04 42.18 66.8 103.89 99.04 103.89 134.67 103.89 116.86 73.03 99.04 42.18"/><polygon class="cls-8" points="134.67 103.89 116.86 134.74 99.04 165.6 134.67 165.6 170.3 165.6 152.49 134.74 134.67 103.89"/><polygon class="cls-7" points="170.3 165.6 188.12 196.45 205.93 227.31 223.75 196.45 241.56 165.6 205.93 165.6 170.3 165.6"/><path class="cls-9" d="M141.62,34.68a24.88,24.88,0,0,1,18-14.87L156,13.47,149.43,2.14A45,45,0,0,0,121,34.68H108.09l-5.57,9.64h71.26l-5.56-9.64Z" transform="translate(-3.48 -2.14)"/><polygon class="cls-10" points="170.3 42.18 152.49 73.03 134.67 103.89 170.3 103.89 205.93 103.89 188.12 73.03 170.3 42.18"/><polygon class="cls-8" points="205.93 103.89 188.12 134.74 170.3 165.6 205.93 165.6 241.56 165.6 223.75 134.74 205.93 103.89"/><polygon class="cls-7" points="241.56 165.6 259.38 196.45 261.2 199.6 259.1 165.6 241.56 165.6"/><path class="cls-9" d="M234.4,34.68H208.12a44.33,44.33,0,0,0-14.66-24.44l-1.86,3.23-8.35,14.46a25.06,25.06,0,0,1,4.17,6.75h-8.07l-5.57,9.64H245l-5.15-8.92A21.14,21.14,0,0,0,234.4,34.68Z" transform="translate(-3.48 -2.14)"/><polygon class="cls-10" points="241.56 42.18 223.75 73.03 205.93 103.89 241.56 103.89 255.3 103.89 252.69 61.45 241.56 42.18"/><polygon class="cls-8" points="241.56 165.6 259.1 165.6 257.41 138.15 241.56 165.6"/><path class="cls-9" d="M247.84,39.48,245,44.32h7.17a20.87,20.87,0,0,0-2.76-3.39A20.07,20.07,0,0,0,247.84,39.48Z" transform="translate(-3.48 -2.14)"/><polygon class="cls-2" points="20.11 137.07 40.34 102.03 0 102.03 20.11 137.07"/></svg>